<?xml version="1.0" encoding="utf-8"?>
<svg version="1.1" id="jetty-icon" xmlns="http://www.w3.org/2000/svg" x="0px" y="0px"
	 viewBox="0 0 34 34" style="enable-background:new 0 0 34 34;" xml:space="preserve">
<style type="text/css">
	.st0{fill:#FFFFFF;}
</style>
<path class="st0" d="M31.6,8.1H2.4C1.6,8.1,1,8.7,1,9.5v3.9c0,0.8,0.6,1.4,1.4,1.4h1.9v8.3c0,0.8,0.6,1.4,1.4,1.4
	c0.8,0,1.4-0.6,1.4-1.4v-8.3h6.4v8.3c0,0.8,0.6,1.4,1.4,1.4s1.4-0.6,1.4-1.4v-8.3h6.4v8.3c0,0.8,0.6,1.4,1.4,1.4
	c0.8,0,1.4-0.6,1.4-1.4v-8.3h6.1c0.8,0,1.4-0.6,1.4-1.4V9.5C33,8.7,32.4,8.1,31.6,8.1z M30.2,12H3.8v-1.1h26.4V12z"/>
<path class="st0" d="M2.6,28.8c1.6,0,2.5-0.6,3.3-1.1c0.7-0.5,1.2-0.8,2.2-0.8s1.5,0.3,2.2,0.8c0.8,0.5,1.7,1.1,3.3,1.1
	s2.5-0.6,3.3-1.1c0.7-0.5,1.2-0.8,2.2-0.8s1.5,0.3,2.2,0.8c0.8,0.5,1.7,1.1,3.3,1.1s2.5-0.6,3.3-1.1c0.7-0.5,1.2-0.8,2.2-0.8
	c0.8,0,1.4-0.6,1.4-1.4s-0.6-1.4-1.4-1.4c-1.6,0-2.5,0.6-3.3,1.1c-0.7,0.5-1.2,0.8-2.2,0.8s-1.5-0.3-2.2-0.8
	c-0.8-0.5-1.7-1.1-3.3-1.1s-2.5,0.6-3.3,1.1c-0.7,0.5-1.2,0.8-2.2,0.8s-1.5-0.3-2.2-0.8c-0.8-0.5-1.7-1.1-3.3-1.1
	s-2.5,0.6-3.3,1.1C4.1,25.7,3.6,26,2.6,26c-0.8,0-1.4,0.6-1.4,1.4S1.8,28.8,2.6,28.8z"/>
<path class="st0" d="M8.6,5.2h16.8c0.8,0,1.4-0.6,1.4-1.4s-0.6-1.4-1.4-1.4H8.6C7.8,2.4,7.2,3,7.2,3.8S7.8,5.2,8.6,5.2z"/>
</svg>
