<?xml version="1.0" encoding="utf-8"?>
<svg version="1.1" id="silt-curtain-icon" xmlns="http://www.w3.org/2000/svg" x="0px" y="0px"
	 viewBox="0 0 34 34" style="enable-background:new 0 0 34 34;" xml:space="preserve">
<style type="text/css">
	.st0{fill:#f64b3c;}
</style>
<path class="st0" d="M6.1,7.2h21.8c0.8,0,1.4-0.6,1.4-1.4s-0.6-1.4-1.4-1.4H6.1c-0.8,0-1.4,0.6-1.4,1.4S5.3,7.2,6.1,7.2z"/>
<path class="st0" d="M8.6,9.2c-0.8,0-1.4,0.6-1.4,1.4v12.1c0,0.8,0.6,1.4,1.4,1.4s1.4-0.6,1.4-1.4V10.6C10,9.8,9.4,9.2,8.6,9.2z"
	/>
<path class="st0" d="M17,9.2c-0.8,0-1.4,0.6-1.4,1.4v12.1c0,0.8,0.6,1.4,1.4,1.4s1.4-0.6,1.4-1.4V10.6C18.4,9.8,17.8,9.2,17,9.2z"
	/>
<path class="st0" d="M25.4,9.2c-0.8,0-1.4,0.6-1.4,1.4v12.1c0,0.8,0.6,1.4,1.4,1.4s1.4-0.6,1.4-1.4V10.6C26.8,9.8,26.2,9.2,25.4,9.2
	z"/>
<path class="st0" d="M6.1,12.2c1.4,0,2.2-0.5,2.9-1c0.5-0.4,0.9-0.6,1.8-0.6c0.8,0,1.2,0.3,1.8,0.6c0.7,0.5,1.5,1,2.9,1
	s2.2-0.5,2.9-1c0.5-0.4,0.9-0.6,1.8-0.6s1.2,0.3,1.8,0.6c0.7,0.5,1.5,1,2.9,1s2.2-0.5,2.9-1c0.5-0.4,0.9-0.6,1.8-0.6
	c0.7,0,1.3-0.6,1.3-1.3S30.1,8,29.4,8c-1.4,0-2.2,0.5-2.9,1c-0.5,0.4-0.9,0.6-1.8,0.6c-0.8,0-1.2-0.3-1.8-0.6
	c-0.7-0.5-1.5-1-2.9-1s-2.2,0.5-2.9,1c-0.5,0.4-0.9,0.6-1.8,0.6c-0.8,0-1.2-0.3-1.8-0.6c-0.7-0.5-1.5-1-2.9-1S7.6,8.5,6.9,9
	C6.4,9.4,6,9.6,5.1,9.6C4.4,9.6,3.8,10.2,3.8,11S4.4,12.2,6.1,12.2z"/>
<path class="st0" d="M31.1,26.2c-1.4,0-2.2,0.5-2.9,1c-0.5,0.4-0.9,0.6-1.8,0.6c-0.8,0-1.2-0.3-1.8-0.6c-0.7-0.5-1.5-1-2.9-1
	s-2.2,0.5-2.9,1c-0.5,0.4-0.9,0.6-1.8,0.6s-1.2-0.3-1.8-0.6c-0.7-0.5-1.5-1-2.9-1s-2.2,0.5-2.9,1c-0.5,0.4-0.9,0.6-1.8,0.6
	c-0.8,0-1.2-0.3-1.8-0.6c-0.7-0.5-1.5-1-2.9-1c-0.7,0-1.3,0.6-1.3,1.3s0.6,1.3,1.3,1.3c0.8,0,1.2,0.3,1.8,0.6
	c0.7,0.5,1.5,1,2.9,1s2.2-0.5,2.9-1c0.5-0.4,0.9-0.6,1.8-0.6s1.2,0.3,1.8,0.6c0.7,0.5,1.5,1,2.9,1s2.2-0.5,2.9-1
	c0.5-0.4,0.9-0.6,1.8-0.6c0.8,0,1.2,0.3,1.8,0.6c0.7,0.5,1.5,1,2.9,1s2.2-0.5,2.9-1c0.5-0.4,0.9-0.6,1.8-0.6
	c0.7,0,1.3-0.6,1.3-1.3S31.8,26.2,31.1,26.2z"/>
</svg>
